<svg aria-hidden="true" style="width:0;height:0;position:absolute;overflow:hidden" xmlns="http://www.w3.org/2000/svg"><defs><symbol id="icon-search" viewBox="0 0 32 32"><path d="M5.333 14.667a9.333 9.333 0 1 1 18.666 0 9.333 9.333 0 1 1-18.666 0zm9.334-12c-6.627 0-12 5.373-12 12s5.373 12 12 12a11.95 11.95 0 0 0 7.49-2.624l4.9 4.9a1.333 1.333 0 1 0 1.886-1.886l-4.9-4.9a11.95 11.95 0 0 0 2.624-7.49c0-6.627-5.373-12-12-12z"/></symbol><symbol id="icon-arrow" viewBox="0 0 32 32"><path d="M32 16c0 4.418-1.791 8.418-4.686 11.314S20.419 32 16 32c-4.418 0-8.418-1.791-11.314-4.686S0 20.419 0 16c0-4.418 1.791-8.418 4.686-11.314S11.581 0 16 0c4.418 0 8.418 1.791 11.314 4.686S32 11.581 32 16zm-10.98 2.587a1.175 1.175 0 0 0 1.637-1.682l-5.864-5.687-.818.841.819-.845a1.177 1.177 0 0 0-1.664.026l-.038.041-5.75 5.624a1.173 1.173 0 1 0 1.636 1.682l5-4.89 5.043 4.89zm4.63 7.063c2.47-2.469 3.997-5.881 3.997-9.65S28.12 8.82 25.65 6.35C23.181 3.881 19.769 2.353 16 2.353S8.82 3.88 6.35 6.35C3.88 8.82 2.353 12.231 2.353 16s1.527 7.18 3.997 9.65c2.469 2.47 5.881 3.997 9.65 3.997s7.18-1.528 9.649-3.997z"/></symbol></defs></svg>