<svg aria-hidden="true" style="position: absolute; width: 0; height: 0; overflow: hidden;" version="1.1" xmlns="http://www.w3.org/2000/svg" xmlns:xlink="http://www.w3.org/1999/xlink">
<defs>
<symbol id="icon-search" viewBox="0 0 32 32">
<path d="M5.333 14.667c0-5.155 4.179-9.333 9.333-9.333s9.333 4.179 9.333 9.333c0 5.155-4.179 9.333-9.333 9.333s-9.333-4.179-9.333-9.333zM14.667 2.667c-6.627 0-12 5.373-12 12s5.373 12 12 12c2.833 0 5.437-0.982 7.49-2.624l4.9 4.9c0.521 0.521 1.365 0.521 1.886 0s0.521-1.365 0-1.886l-4.9-4.9c1.642-2.053 2.624-4.657 2.624-7.49 0-6.627-5.373-12-12-12z"></path>
</symbol>
<symbol id="icon-arrow" viewBox="0 0 32 32">
<path d="M32 16c0 4.418-1.791 8.418-4.686 11.314s-6.895 4.686-11.314 4.686c-4.418 0-8.418-1.791-11.314-4.686s-4.686-6.895-4.686-11.314c0-4.418 1.791-8.418 4.686-11.314s6.895-4.686 11.314-4.686c4.418 0 8.418 1.791 11.314 4.686s4.686 6.895 4.686 11.314v0zM21.020 18.587c0.464 0.452 1.208 0.441 1.66-0.023s0.441-1.208-0.023-1.659l-5.864-5.687-0.818 0.841 0.819-0.845c-0.466-0.452-1.212-0.441-1.664 0.026-0.013 0.014-0.026 0.027-0.038 0.041l-5.75 5.624c-0.465 0.452-0.475 1.195-0.023 1.659s1.195 0.475 1.659 0.023l5-4.89 5.043 4.89zM25.65 25.65c2.47-2.469 3.997-5.881 3.997-9.65s-1.527-7.18-3.997-9.65c-2.469-2.469-5.881-3.997-9.65-3.997s-7.18 1.527-9.65 3.997c-2.47 2.47-3.997 5.881-3.997 9.65s1.527 7.18 3.997 9.65c2.469 2.47 5.881 3.997 9.65 3.997s7.18-1.528 9.649-3.997v0z"></path>
</symbol>
</defs>
</svg>
