<svg aria-hidden="true" style="position: absolute; width: 0; height: 0; overflow: hidden;" version="1.1" xmlns="http://www.w3.org/2000/svg" xmlns:xlink="http://www.w3.org/1999/xlink">
<defs>
<symbol id="icon-view" viewBox="0 0 32 32">
<path d="M16 5c10 0 16 11 16 11s-6 11-16 11-16-11-16-11 6-11 16-11zM16 7c-7.040 0-12.004 6.502-13.65 9 1.644 2.496 6.608 9 13.65 9 7.040 0 12.004-6.502 13.65-9-1.644-2.496-6.608-9-13.65-9zM16 9c3.866 0 7 3.134 7 7s-3.134 7-7 7v0c-3.866 0-7-3.134-7-7s3.134-7 7-7v0zM16 11c-2.76 0.003-4.997 2.24-5 5v0c0 2.756 2.242 5 5 5s5-2.244 5-5-2.242-5-5-5z"></path>
</symbol>
<symbol id="icon-comment" viewBox="0 0 32 32">
<path fill="#41416e" style="fill: var(--color1, #41416e)" d="M22.667 4.333h-13.333c-3.496 0.005-6.329 2.837-6.333 6.333v17.334c0.001 0.552 0.448 0.999 1 0.999 0.276 0 0.526-0.112 0.707-0.292v0l3.219-3.219c0.301-0.301 0.717-0.488 1.176-0.488 0.001 0 0.003 0 0.004 0h13.561c3.496-0.005 6.329-2.837 6.333-6.333v-8c-0.005-3.496-2.837-6.329-6.333-6.333h-0zM27 18.667c-0.003 2.392-1.941 4.33-4.333 4.333h-13.562c-0.003 0-0.007-0-0.011-0-1.009 0-1.923 0.411-2.582 1.075l-1.512 1.511v-14.919c0.003-2.392 1.941-4.33 4.333-4.333h13.334c2.392 0.003 4.33 1.941 4.333 4.333v0zM12 14.667c0 0.736-0.597 1.333-1.333 1.333s-1.333-0.597-1.333-1.333c0-0.736 0.597-1.333 1.333-1.333v0c0.736 0 1.333 0.597 1.333 1.333v0zM17.333 14.667c0 0.736-0.597 1.333-1.333 1.333s-1.333-0.597-1.333-1.333c0-0.736 0.597-1.333 1.333-1.333v0c0.736 0 1.333 0.597 1.333 1.333v0zM22.667 14.667c0 0.736-0.597 1.333-1.333 1.333s-1.333-0.597-1.333-1.333c0-0.736 0.597-1.333 1.333-1.333v0c0.736 0 1.333 0.597 1.333 1.333v0z"></path>
</symbol>
<symbol id="icon-download" viewBox="0 0 32 32">
<path d="M14.667 4.017c-0.002-0.736 0.593-1.335 1.329-1.337s1.335 0.593 1.337 1.329l-2.667 0.008z"></path>
<path d="M19.088 13.727l-1.719 1.729-0.036-11.448-2.667 0.008 0.036 11.448-1.729-1.718c-0.522-0.519-1.367-0.516-1.886 0.006s-0.516 1.367 0.006 1.886l0.003 0.003 0.001 0.001 4.954 4.923 4.927-4.958-1.891-1.88z"></path>
<path d="M20.979 15.607c0.519-0.522 0.516-1.367-0.006-1.886s-1.367-0.516-1.886 0.006l1.891 1.88z"></path>
<path d="M5.333 16c0-1.473 1.194-2.667 2.667-2.667 0.736 0 1.333-0.597 1.333-1.333s-0.597-1.333-1.333-1.333c-2.946 0-5.333 2.388-5.333 5.333v8c0 2.945 2.388 5.333 5.333 5.333h14.667c3.682 0 6.667-2.985 6.667-6.667v-6.667c0-2.946-2.388-5.333-5.333-5.333-0.736 0-1.333 0.597-1.333 1.333s0.597 1.333 1.333 1.333c1.473 0 2.667 1.194 2.667 2.667v6.667c0 2.209-1.791 4-4 4h-14.667c-1.473 0-2.667-1.194-2.667-2.667v-8z"></path>
</symbol>
<symbol id="icon-like" viewBox="0 0 32 32">
<path d="M10.5 8v2c-1.378 0-2.5 1.121-2.5 2.5h-2c0-2.481 2.019-4.5 4.5-4.5z"></path>
<path d="M21.5 5c-2.116 0-4.093 0.881-5.5 2.406-1.407-1.525-3.384-2.406-5.5-2.406-4.136 0-7.5 3.333-7.5 7.5 0 9.042 13 14.5 13 14.5s13-5.458 13-14.5c0-4.167-3.364-7.5-7.5-7.5zM16 24.797c-2.622-1.276-11-5.859-11-12.297 0-3.033 2.467-5.5 5.5-5.5 1.55 0 2.982 0.626 4.030 1.762l0.735 0.797h1.47l0.735-0.797c1.048-1.136 2.48-1.762 4.030-1.762 3.033 0 5.5 2.467 5.5 5.5 0 6.438-8.378 11.021-11 12.297z"></path>
</symbol>
<symbol id="icon-search" viewBox="0 0 32 32">
<path d="M5.333 14.667c0-5.155 4.179-9.333 9.333-9.333s9.333 4.179 9.333 9.333c0 5.155-4.179 9.333-9.333 9.333s-9.333-4.179-9.333-9.333zM14.667 2.667c-6.627 0-12 5.373-12 12s5.373 12 12 12c2.833 0 5.437-0.982 7.49-2.624l4.9 4.9c0.521 0.521 1.365 0.521 1.886 0s0.521-1.365 0-1.886l-4.9-4.9c1.642-2.053 2.624-4.657 2.624-7.49 0-6.627-5.373-12-12-12z"></path>
</symbol>
</defs>
</svg>
