<svg aria-hidden="true" style="position: absolute; width: 0; height: 0; overflow: hidden;" version="1.1" xmlns="http://www.w3.org/2000/svg" xmlns:xlink="http://www.w3.org/1999/xlink">
<defs>
<symbol id="icon-search" viewBox="0 0 32 32">
<path d="M5.333 14.667c0-5.155 4.179-9.333 9.333-9.333s9.333 4.179 9.333 9.333c0 5.155-4.179 9.333-9.333 9.333s-9.333-4.179-9.333-9.333zM14.667 2.667c-6.627 0-12 5.373-12 12s5.373 12 12 12c2.833 0 5.437-0.982 7.49-2.624l4.9 4.9c0.521 0.521 1.365 0.521 1.886 0s0.521-1.365 0-1.886l-4.9-4.9c1.642-2.053 2.624-4.657 2.624-7.49 0-6.627-5.373-12-12-12z"></path>
</symbol>
</defs>
</svg>
